<?xml version="1.0" standalone="no"?>
<!DOCTYPE svg PUBLIC "-//W3C//DTD SVG 20010904//EN"
 "http://www.w3.org/TR/2001/REC-SVG-20010904/DTD/svg10.dtd">
<svg version="1.0" xmlns="http://www.w3.org/2000/svg"
 width="100.000000pt" height="100.000000pt" viewBox="0 0 100.000000 100.000000"
 preserveAspectRatio="xMidYMid meet">

<g transform="translate(0.000000,100.000000) scale(0.100000,-0.100000)"
fill="#000000" stroke="none">
<path d="M394 930 c-159 -33 -264 -167 -264 -334 0 -89 10 -120 69 -216 45
-73 46 -77 49 -167 l4 -93 30 0 30 0 -4 103 c-3 98 -5 107 -37 158 -58 90 -74
130 -79 187 -10 115 35 212 121 266 41 25 61 30 130 34 115 6 161 -9 219 -68
36 -37 51 -63 63 -107 8 -32 30 -87 48 -122 17 -36 34 -68 35 -73 2 -5 -10
-13 -27 -19 l-31 -11 0 -78 c0 -97 -20 -128 -88 -137 l-43 -6 3 -61 c3 -60 3
-61 33 -61 27 0 30 3 33 38 2 28 8 37 21 37 25 0 68 36 86 70 8 16 15 55 15
88 0 53 3 60 30 80 40 30 39 64 -4 144 -18 35 -39 86 -45 113 -25 102 -99 189
-189 219 -57 20 -155 27 -208 16z"/>
<path d="M322 738 c-13 -13 -18 -252 -6 -282 5 -14 28 -16 150 -16 131 0 144
2 154 19 13 25 13 231 0 265 l-10 26 -138 0 c-94 0 -142 -4 -150 -12z m238
-143 l0 -95 -90 0 -90 0 0 95 0 95 90 0 90 0 0 -95z"/>
<path d="M440 590 c0 -27 3 -30 30 -30 27 0 30 3 30 30 0 27 -3 30 -30 30 -27
0 -30 -3 -30 -30z"/>
</g>
</svg>
